<svg xmlns="http://www.w3.org/2000/svg" xmlns:xlink="http://www.w3.org/1999/xlink" version="1.0" viewBox="0 0 70.000000 70.000000" preserveAspectRatio="xMidYMid meet" color-interpolation-filters="sRGB" width="200px" height="200px">
    <g fill="#fff">
      <g fill="#fff" x="10" y="10">
        <rect fill="#fff" fill-opacity="0" stroke-width="2" x="0" y="0">
        </rect>
        <svg x="5" y="5">
          <g hollow-target="iconBnFill" mask="url(#f4690aa3-8dc3-4497-b5a8-ec063c782c1f)">
            <g><svg xmlns="http://www.w3.org/2000/svg" xmlns:xlink="http://www.w3.org/1999/xlink" version="1.1" x="0" y="0" viewBox="14.920000076293945 13.045000076293945 73.91000366210938 73.91000366210938" enable-background="new 0 0 100 100" xml:space="preserve" width="60" height="60" filtersec="colorsb8228137762">
                <polygon points="36.568,86.955 14.92,65.307 14.92,34.693 36.568,13.045 67.183,13.045 88.83,34.693 88.83,65.307 67.183,86.955 ">
                </polygon>
              </svg></g>
            <g><svg xmlns="http://www.w3.org/2000/svg" viewBox="0 0 512 512" width="40" height="40" x="10" y="10">
                <path d="M59.543 169.815c-.77-8.292-8.116-14.391-16.408-13.622l-29.439 2.731c-8.293.769-14.391 8.115-13.622 16.407.77 8.294 8.117 14.391 16.408 13.622l29.439-2.731c8.293-.769 14.391-8.115 13.622-16.407zM188.964 16.473c.768-8.292-5.33-15.639-13.622-16.407-8.293-.769-15.639 5.33-16.408 13.622l-2.731 29.438c-.769 8.296 5.335 15.638 13.622 16.407 8.293.769 15.639-5.33 16.408-13.622zM94.409 91.694c5.889-5.889 5.889-15.437 0-21.325L75.525 51.485c-5.889-5.889-15.437-5.889-21.325 0s-5.889 15.437 0 21.325l18.885 18.885c5.888 5.888 15.435 5.888 21.324-.001z" fill="#ffea80"/>
                <path d="M452.455 342.185c.769 8.292 8.116 14.391 16.408 13.621l29.438-2.732c8.293-.769 14.391-8.116 13.621-16.408-.768-8.291-8.115-14.392-16.408-13.621l-29.438 2.732c-8.292.77-14.391 8.116-13.621 16.408zm-96.66 126.69c.769-8.294-5.331-15.641-13.621-16.408-8.293-.769-15.639 5.329-16.408 13.621l-2.731 29.437c-.77 8.303 5.341 15.641 13.621 16.408 8.293.769 15.639-5.329 16.408-13.621zm102.004-29.685l-18.885-18.885c-5.889-5.889-15.437-5.889-21.325 0-5.889 5.889-5.889 15.437 0 21.325l18.885 18.885c5.889 5.889 15.437 5.889 21.325 0 5.889-5.888 5.889-15.436 0-21.325z" fill="#f3d332"/>
                <path d="M350.425 161.562l.008.008-20.5 43.034-34.527 11.993-.008-.008c-22.736-22.736-59.564-22.789-82.375-.173l41.213-62.805 45.639-24.047c18.462 6.565 35.783 17.231 50.55 31.998zm-192.602 0L39.898 279.487c-53.194 53.194-53.194 139.437-.015 192.616l.008.008 35.092-12.559 16.547-39.081-.008-.008c-22.789-22.789-22.796-59.751 0-82.548l37.383-37.383 3.673-3.673 31.599-72.22z" fill="#00ddc0"/>
                <path d="M348.18 356.439l40.563-40.557 33.166-64.299-39.471-39.471c-6.572-18.455-17.231-35.768-32.005-50.543l-55.027 55.027c22.736 22.751 22.781 59.556.173 82.375l-8.067 8.067-69.065 33.087-6.332 42.31-38.037 38.037c-22.796 22.796-59.744 22.789-82.548 0l-51.64 51.639c53.202 53.187 139.43 53.187 192.624-.008 82.375-82.374 107.658-107.645 115.666-115.664z" fill="#00ba9f"/>
                <path d="M240.51 314.193c-43.043-10.57-59.978-65.005-27.487-97.777L334.524 94.915c22.796-22.796 59.759-22.789 82.548 0l.008.008 37.719-15.185 17.308-39.842-.008-.008c-53.179-53.179-139.415-53.187-192.601 0-126.21 126.21-118.421 118.391-119.781 119.826-36.902 38.329-46.952 92.951-30.142 140.151 6.702 18.877 17.523 36.09 31.998 50.565 14.774 14.774 32.088 25.433 50.543 32.005l37.841-37.841 45.623-45.623c-14.966 14.836-35.971 19.91-55.07 15.222z" fill="#ffea80"/>
                <path d="M352.288 352.285c25.358-26.334 38.044-60.367 38.037-94.415 0-15.488-2.621-30.999-7.887-45.758l34.642-34.642c22.789-22.789 22.796-59.736 0-82.548l55.027-55.027c53.187 53.202 53.194 139.422.008 192.609C345.881 358.737 353.73 350.918 352.288 352.285z" fill="#f3d332"/>
              </svg></g>
          </g>
          <mask id="f4690aa3-8dc3-4497-b5a8-ec063c782c1f">
            <g fill="white"><svg xmlns="http://www.w3.org/2000/svg" xmlns:xlink="http://www.w3.org/1999/xlink" version="1.1" x="0" y="0" viewBox="14.920000076293945 13.045000076293945 73.91000366210938 73.91000366210938" enable-background="new 0 0 100 100" xml:space="preserve" width="60" height="60" filtersec="colorsb8228137762">
                <polygon points="36.568,86.955 14.92,65.307 14.92,34.693 36.568,13.045 67.183,13.045 88.83,34.693 88.83,65.307 67.183,86.955 ">
                </polygon>
              </svg></g>
            <g fill="black"><svg xmlns="http://www.w3.org/2000/svg" viewBox="0 0 512 512" width="40" height="40" x="10" y="10">
                <path d="M59.543 169.815c-.77-8.292-8.116-14.391-16.408-13.622l-29.439 2.731c-8.293.769-14.391 8.115-13.622 16.407.77 8.294 8.117 14.391 16.408 13.622l29.439-2.731c8.293-.769 14.391-8.115 13.622-16.407zM188.964 16.473c.768-8.292-5.33-15.639-13.622-16.407-8.293-.769-15.639 5.33-16.408 13.622l-2.731 29.438c-.769 8.296 5.335 15.638 13.622 16.407 8.293.769 15.639-5.33 16.408-13.622zM94.409 91.694c5.889-5.889 5.889-15.437 0-21.325L75.525 51.485c-5.889-5.889-15.437-5.889-21.325 0s-5.889 15.437 0 21.325l18.885 18.885c5.888 5.888 15.435 5.888 21.324-.001z">
                </path>
                <path d="M452.455 342.185c.769 8.292 8.116 14.391 16.408 13.621l29.438-2.732c8.293-.769 14.391-8.116 13.621-16.408-.768-8.291-8.115-14.392-16.408-13.621l-29.438 2.732c-8.292.77-14.391 8.116-13.621 16.408zm-96.66 126.69c.769-8.294-5.331-15.641-13.621-16.408-8.293-.769-15.639 5.329-16.408 13.621l-2.731 29.437c-.77 8.303 5.341 15.641 13.621 16.408 8.293.769 15.639-5.329 16.408-13.621zm102.004-29.685l-18.885-18.885c-5.889-5.889-15.437-5.889-21.325 0-5.889 5.889-5.889 15.437 0 21.325l18.885 18.885c5.889 5.889 15.437 5.889 21.325 0 5.889-5.888 5.889-15.436 0-21.325z">
                </path>
                <path d="M350.425 161.562l.008.008-20.5 43.034-34.527 11.993-.008-.008c-22.736-22.736-59.564-22.789-82.375-.173l41.213-62.805 45.639-24.047c18.462 6.565 35.783 17.231 50.55 31.998zm-192.602 0L39.898 279.487c-53.194 53.194-53.194 139.437-.015 192.616l.008.008 35.092-12.559 16.547-39.081-.008-.008c-22.789-22.789-22.796-59.751 0-82.548l37.383-37.383 3.673-3.673 31.599-72.22z">
                </path>
                <path d="M348.18 356.439l40.563-40.557 33.166-64.299-39.471-39.471c-6.572-18.455-17.231-35.768-32.005-50.543l-55.027 55.027c22.736 22.751 22.781 59.556.173 82.375l-8.067 8.067-69.065 33.087-6.332 42.31-38.037 38.037c-22.796 22.796-59.744 22.789-82.548 0l-51.64 51.639c53.202 53.187 139.43 53.187 192.624-.008 82.375-82.374 107.658-107.645 115.666-115.664z">
                </path>
                <path d="M240.51 314.193c-43.043-10.57-59.978-65.005-27.487-97.777L334.524 94.915c22.796-22.796 59.759-22.789 82.548 0l.008.008 37.719-15.185 17.308-39.842-.008-.008c-53.179-53.179-139.415-53.187-192.601 0-126.21 126.21-118.421 118.391-119.781 119.826-36.902 38.329-46.952 92.951-30.142 140.151 6.702 18.877 17.523 36.09 31.998 50.565 14.774 14.774 32.088 25.433 50.543 32.005l37.841-37.841 45.623-45.623c-14.966 14.836-35.971 19.91-55.07 15.222z">
                </path>
                <path d="M352.288 352.285c25.358-26.334 38.044-60.367 38.037-94.415 0-15.488-2.621-30.999-7.887-45.758l34.642-34.642c22.789-22.789 22.796-59.736 0-82.548l55.027-55.027c53.187 53.202 53.194 139.422.008 192.609C345.881 358.737 353.73 350.918 352.288 352.285z">
                </path>
              </svg></g>
          </mask>
        </svg>
        <!---->
      </g>

    </g>
  </svg>
