<!-- <svg xmlns="http://www.w3.org/2000/svg" viewBox="0 0 1440 320">
  <path fill="#2196f3" fill-opacity="1"
    d="M0,256L48,245.3C96,235,192,213,288,224C384,235,480,277,576,288C672,299,768,277,864,256C960,235,1056,213,1152,224C1248,235,1344,277,1392,298.7L1440,320L1440,0L1392,0C1344,0,1248,0,1152,0C1056,0,960,0,864,0C768,0,672,0,576,0C480,0,384,0,288,0C192,0,96,0,48,0L0,0Z">
  </path>
</svg> -->
<svg xmlns="http://www.w3.org/2000/svg" viewBox="0 0 1440 320"><path fill="#2196f3" fill-opacity="1" d="M0,288L30,261.3C60,235,120,181,180,170.7C240,160,300,192,360,208C420,224,480,224,540,213.3C600,203,660,181,720,170.7C780,160,840,160,900,176C960,192,1020,224,1080,218.7C1140,213,1200,171,1260,170.7C1320,171,1380,213,1410,234.7L1440,256L1440,0L1410,0C1380,0,1320,0,1260,0C1200,0,1140,0,1080,0C1020,0,960,0,900,0C840,0,780,0,720,0C660,0,600,0,540,0C480,0,420,0,360,0C300,0,240,0,180,0C120,0,60,0,30,0L0,0Z"></path></svg>
